<svg width="518" height="518" viewBox="0 0 518 518" fill="none" xmlns="http://www.w3.org/2000/svg">
<circle cx="259" cy="259" r="259" fill="#FFAA15"/>
<path d="M259 518C402.042 518 518 402.042 518 259C518 115.958 402.042 0 259 0V518Z" fill="#EF9E10"/>
<path d="M181.953 245.75L204.031 203.844H253.25L213.172 277.953L255.219 356H205.719L181.812 311L158.328 356H108.547L150.734 277.953L110.797 203.844H160.578L181.953 245.75ZM410.609 356H267.734V325.062L333.547 255.875C349.766 237.406 357.875 222.734 357.875 211.859C357.875 203.047 355.953 196.344 352.109 191.75C348.266 187.156 342.688 184.859 335.375 184.859C328.156 184.859 322.297 187.953 317.797 194.141C313.297 200.234 311.047 207.875 311.047 217.062H263.516C263.516 204.5 266.656 192.922 272.938 182.328C279.219 171.641 287.938 163.297 299.094 157.297C310.25 151.297 322.719 148.297 336.5 148.297C358.625 148.297 375.641 153.406 387.547 163.625C399.547 173.844 405.547 188.516 405.547 207.641C405.547 215.703 404.047 223.578 401.047 231.266C398.047 238.859 393.359 246.875 386.984 255.312C380.703 263.656 370.531 274.859 356.469 288.922L330.031 319.438H410.609V356Z" fill="white"/>
</svg>