<svg width="753" height="244" viewBox="0 0 753 244" fill="none" xmlns="http://www.w3.org/2000/svg">
<path d="M13.2264 243.656C13.2264 243.252 36.8118 235.348 45.593 232.809C49.4706 231.688 53.5084 230.499 54.5659 230.167C58.0457 229.074 67.8887 226.896 76.0369 225.415C87.5794 223.318 102.13 223.272 108.442 225.312C110.931 226.117 114.156 227.661 115.61 228.744C118.292 230.742 121.542 235.587 121.542 237.584C121.542 238.187 121.831 238.68 122.183 238.68C122.536 238.68 122.824 238.187 122.824 237.584C122.824 235.587 126.075 230.742 128.757 228.744C130.211 227.661 133.436 226.117 135.925 225.312C145.764 222.131 169.625 224.261 189.48 230.092C190.714 230.455 194.896 231.673 198.774 232.799C208.537 235.636 231.317 243.334 230.978 243.682C230.825 243.84 227.987 243.111 224.671 242.063C221.355 241.014 214.46 239.103 209.349 237.815C170.206 227.949 142.05 227.891 124.992 237.641L122.354 239.149L117.287 236.622C97.7906 226.897 64.088 228.654 21.249 241.629C12.8284 244.179 13.2264 244.079 13.2264 243.656V243.656ZM18.453 228.231C16.6742 223.281 11.7401 209.764 7.48839 198.193C3.23657 186.622 -0.131421 177.041 0.00394173 176.902C0.139369 176.762 5.69342 178.917 12.3463 181.69C18.9992 184.464 33.2392 190.385 43.9907 194.848C54.7422 199.312 70.0282 205.68 77.9596 209C85.8911 212.319 95.3367 216.252 98.9501 217.737C102.563 219.223 105.395 220.567 105.243 220.724C105.091 220.88 103.491 220.682 101.686 220.284C96.4033 219.119 83.4959 219.403 75.3187 220.864C66.1016 222.512 57.6561 224.95 39.5042 231.204C31.5728 233.937 24.3193 236.412 23.3853 236.703C21.6993 237.228 21.6638 237.167 18.453 228.231V228.231ZM206.465 231.727C187.045 225.049 178.367 222.533 168.936 220.844C161.036 219.43 148.288 219.128 142.677 220.223C140.809 220.587 139.188 220.79 139.074 220.672C138.96 220.555 143.261 218.635 148.631 216.406C154.001 214.177 164.02 210.005 170.894 207.135C177.767 204.264 190.314 199.036 198.774 195.515C207.234 191.994 220.891 186.302 229.122 182.866C237.353 179.43 244.216 176.75 244.372 176.911C244.528 177.071 243.498 180.332 242.084 184.158C240.67 187.983 235.73 201.445 231.107 214.073C226.484 226.7 222.653 237.078 222.595 237.134C222.536 237.19 215.277 234.757 206.465 231.727ZM110.967 220.219C108.852 219.181 105.68 217.669 103.917 216.86C102.154 216.051 95.8093 213.102 89.8167 210.308C83.8241 207.513 73.0085 202.49 65.7821 199.145C42.9623 188.583 30.2357 182.617 29.4606 182.119C28.9748 181.807 28.2726 175.6 27.4676 164.502C26.784 155.078 26.2739 147.299 26.3341 147.217C26.5402 146.934 30.422 150.006 36.1027 154.949C39.2286 157.668 43.1901 161.08 44.9061 162.531C46.622 163.981 48.3438 165.469 48.7322 165.837C49.1207 166.205 50.7331 167.54 52.3153 168.804C53.8975 170.068 59.7005 174.959 65.2108 179.673C70.7211 184.387 78.0384 190.617 81.4714 193.518C84.9046 196.419 90.4521 201.166 93.7994 204.067C97.1467 206.968 100.504 209.781 101.26 210.32C102.291 211.053 110.194 217.713 115.08 221.965C115.637 222.45 114.694 222.05 110.967 220.219V220.219ZM129.554 221.694C131.62 219.805 141.953 211.126 143.106 210.312C143.863 209.778 147.22 206.968 150.567 204.067C153.915 201.166 159.462 196.419 162.895 193.518C166.328 190.617 173.642 184.385 179.149 179.669C184.655 174.953 190.89 169.716 193.005 168.031C195.12 166.347 197.428 164.419 198.133 163.748C202.3 159.782 209.919 153.777 210.295 154.164C210.538 154.414 210.641 154.292 210.524 153.891C210.32 153.196 217.535 146.647 217.97 147.133C218.205 147.395 215.716 181.537 215.439 181.85C215.21 182.109 197.867 190.28 187.558 194.985C183.151 196.996 176.851 199.936 173.558 201.519C170.265 203.102 167.472 204.397 167.352 204.397C167.168 204.397 156.06 209.56 140.77 216.752C131.366 221.175 128.964 222.234 129.554 221.694V221.694ZM112.309 215.668C110.607 213.889 109.407 212.113 109.643 211.719C109.905 211.284 109.704 211.15 109.129 211.377C108.501 211.625 101.807 205.278 89.0672 192.355C78.5517 181.689 67.897 170.911 65.3901 168.406L60.8321 163.849L61.345 154.949C61.627 150.053 61.9146 143.608 61.984 140.625C62.0534 137.642 62.3275 135.34 62.5932 135.509C63.2258 135.911 71.6553 149.437 71.7052 150.13C71.7264 150.423 72.1108 150.96 72.5596 151.323C73.0084 151.685 73.9023 152.92 74.546 154.067C75.1897 155.214 76.7575 157.736 78.0299 159.671C80.3337 163.175 86.267 172.569 92.121 181.98C93.8127 184.7 95.7262 187.667 96.3734 188.573C97.0205 189.48 99.1082 192.743 101.013 195.826C102.917 198.908 107.001 205.361 110.088 210.165C113.175 214.97 115.634 218.901 115.553 218.901C115.472 218.901 114.012 217.446 112.309 215.668V215.668ZM131.925 213.956C133.507 211.418 135.854 207.71 137.14 205.715C138.427 203.721 141.861 198.321 144.771 193.716C147.682 189.111 152.839 180.952 156.231 175.585C159.623 170.218 163.805 163.65 165.524 160.99C167.244 158.329 168.939 155.678 169.291 155.099C173.009 148.992 181.838 135.17 182.02 135.17C182.15 135.17 182.309 137.617 182.375 140.609C182.44 143.6 182.739 150.053 183.039 154.949L183.584 163.849L178.681 168.739C175.984 171.428 165.99 181.525 156.473 191.177C146.955 200.829 136.891 210.941 134.108 213.649L129.049 218.572L131.925 213.956ZM117.512 174.233C115.347 172.148 113.247 170.146 112.844 169.783C112.441 169.42 107.672 164.824 102.246 159.569C84.2594 142.15 68.5129 124.251 58.331 112.753C57.3222 111.484 56.1345 110.054 55.6916 109.574C54.308 108.077 54.808 107.991 56.7258 109.396C57.7375 110.137 61.2706 111.687 64.5772 112.842C72.8138 115.717 82.287 116.205 89.9932 114.15C95.2754 112.741 102.575 109.445 106.051 106.9L107.934 105.52L114.257 112.534C117.735 116.392 120.942 120.022 121.382 120.601C122.116 121.565 122.251 121.565 122.985 120.601C123.425 120.022 126.623 116.401 130.09 112.556L136.394 105.563L138.518 106.995C140.634 108.422 140.637 108.432 139.332 109.596C138.603 110.247 137.993 111.641 137.955 112.746C137.891 114.58 137.709 114.728 135.508 114.73C131.217 114.732 129.133 118.975 131.611 122.661C132.214 123.558 133.503 125.175 134.476 126.256C135.881 127.819 136.407 128.054 137.037 127.406C137.668 126.757 137.614 126.366 136.775 125.503C135.795 124.494 135.854 124.288 137.604 122.606C138.844 121.414 139.488 120.147 139.488 118.9C139.488 117.096 139.608 117.016 141.974 117.248C144 117.446 144.651 117.209 145.499 115.965C146.071 115.125 146.538 113.91 146.538 113.266C146.538 111.801 146.44 111.795 151.917 113.572C155.764 114.82 157.868 115.044 165.446 115.014C173.961 114.98 174.713 114.867 180.187 112.802C183.36 111.605 186.8 110.007 187.834 109.252C167.321 130.547 127.21 174.592 122.183 178.024C121.778 178.024 119.676 176.318 117.512 174.233V174.233ZM124.266 134.409C124.883 133.659 125.388 132.046 125.388 130.825C125.388 128.731 125.474 128.645 126.901 129.314C128.884 130.243 132.438 128.489 132.438 126.582C132.438 125.866 132.15 125.28 131.797 125.28C131.445 125.28 131.156 125.725 131.156 126.269C131.156 126.813 130.868 127.258 130.515 127.258C130.163 127.258 129.658 127.252 129.394 127.244C129.129 127.237 129.012 125.754 129.132 123.948C129.33 120.984 129.221 120.665 128.011 120.665C127.273 120.665 126.67 120.962 126.67 121.324C126.67 121.687 126.333 121.909 125.921 121.819C124.874 121.588 123.423 124.678 123.831 126.269C124.047 127.109 123.17 126.477 121.414 124.525C118.234 120.99 116.013 120.782 118.592 124.261L120.185 126.408L118.3 127.842C116.887 128.916 116.417 129.807 116.425 131.398C116.436 133.829 116.857 134.643 118.658 135.716C120.33 136.712 122.857 136.123 124.266 134.409ZM118.656 133.189C117.695 132.097 117.62 131.582 118.222 130.222C118.94 128.603 120.409 128.17 122.451 128.977C123.921 129.557 123.762 132.982 122.225 133.828C120.487 134.785 119.98 134.694 118.656 133.189ZM126.035 126.409C125.278 124.819 125.295 124.434 126.16 123.544C127.433 122.234 127.809 123.019 127.306 125.939L126.909 128.247L126.035 126.409ZM133.188 121.407C132.704 121.092 132.427 120.028 132.547 118.945C132.735 117.247 133.004 117.039 135.002 117.039C137 117.039 137.268 117.247 137.457 118.945C137.671 120.877 136.788 121.963 135.002 121.963C134.473 121.963 133.657 121.713 133.188 121.407ZM140.495 115.014C138.408 112.866 140.172 109.653 143.032 110.392C144.241 110.704 144.616 111.234 144.616 112.634C144.616 115.762 142.443 117.017 140.495 115.014V115.014ZM118.592 105.302C113.283 99.3903 113.46 100.123 116.391 96.1631C117.824 94.2278 119.62 91.2352 120.383 89.5128C121.146 87.7903 121.957 86.3811 122.183 86.3811C122.41 86.3811 123.22 87.7903 123.984 89.5128C124.747 91.2352 126.543 94.2278 127.976 96.1631C130.907 100.123 131.083 99.3903 125.774 105.302C124.048 107.225 122.432 108.797 122.183 108.797C121.935 108.797 120.319 107.225 118.592 105.302V105.302ZM74.755 107.486C58.6705 105.243 45.848 93.7176 41.7382 77.8101C40.4622 72.8712 40.5058 61.8783 41.8196 57.3276C44.3416 48.5914 50.8764 39.1255 57.2813 34.9307L59.9966 33.1524L56.5361 30.7888C52.6472 28.1327 50.6488 25.6954 48.1424 20.5517C46.048 16.2536 45.3277 8.56878 46.5343 3.39488L47.326 0L49.0735 2.47851C53.284 8.45068 60.0647 13.0405 72.6953 18.4683C92.7274 27.0767 99.4181 31.1865 106.804 39.4192C119.6 53.6833 121.8 72.9055 112.455 88.7922C104.866 101.694 89.1374 109.493 74.755 107.486V107.486ZM91.4577 96.491C97.0382 93.7882 101.609 89.9194 104.482 85.4656C115.722 68.0467 108.347 45.3297 89.1241 38.1615C83.6965 36.1375 74.5693 36.1495 69.4767 38.1872C57.0739 43.1499 49.9207 53.1162 49.2691 66.3418C48.7986 75.8912 51.1699 82.4444 57.648 89.4979C64.0121 96.4272 70.4737 99.0233 80.562 98.7041C86.517 98.5156 87.8262 98.2497 91.4577 96.4909V96.491ZM80.939 78.4519C76.66 77.1325 72.7975 73.0529 71.5329 68.5172C68.9882 59.39 75.913 50.0836 85.2117 50.1338C87.5221 50.1463 93.3418 52.171 93.3418 52.9624C93.3418 53.111 92.2602 52.9389 90.9383 52.5797C85.8841 51.2065 81.1716 55.3776 81.1666 61.2286C81.1666 63.603 81.5328 64.4757 83.3056 66.2994C87.1396 70.2433 91.8406 70.1831 95.2864 66.146C97.1646 63.9455 97.3056 63.4631 97.0386 60.1514C96.7687 56.8026 96.8093 56.6698 97.6181 58.2576C100.292 63.5075 99.1268 70.0715 94.7163 74.6028C90.7333 78.695 86.0084 80.015 80.939 78.4519ZM159.982 107.502C151.887 106.412 143.225 101.984 137.529 96.0238C122.355 80.1454 122.37 56.3558 137.563 39.4192C144.974 31.1582 152.118 26.8519 173.966 17.4755C184.572 12.9236 190.993 8.30258 195.717 1.82125L197.042 0.00409449L197.833 3.39693C199.039 8.56873 198.318 16.2544 196.224 20.5517C193.748 25.6337 191.977 27.795 187.955 30.6446L184.394 33.1677L187.097 34.9384C190.577 37.2172 196.509 43.8311 198.739 47.9178C202.154 54.1756 203.581 59.9226 203.573 67.3775C203.567 71.229 203.159 75.7582 202.628 77.8101C197.64 97.1195 179.042 110.067 159.982 107.502H159.982ZM173.457 97.8037C183.162 95.0836 191.418 86.528 194.34 76.1619C195.801 70.9797 195.667 64.1291 193.996 58.5915C186.999 35.4049 158.16 28.8993 142.384 46.9487C130.154 60.9419 132.709 83.2641 147.713 93.4986C152.532 96.7858 155.473 98.0363 160.959 99.1301C163.093 99.5555 169.715 98.8527 173.457 97.8037V97.8037ZM154.55 78.1768C151.068 76.8556 146.826 72.1276 145.88 68.5131C145.042 65.3107 145.418 60.8703 146.749 58.2576C147.557 56.6698 147.598 56.8026 147.328 60.1514C147.061 63.4631 147.202 63.9455 149.08 66.146C152.526 70.1831 157.227 70.2433 161.061 66.2994C162.834 64.4757 163.202 63.603 163.2 61.2286C163.194 55.3776 158.483 51.2065 153.428 52.5797C150.26 53.4405 150.384 52.9913 153.749 51.4202C160.938 48.0634 169.638 51.8885 172.529 59.6776C174.983 66.2858 171.89 74.2229 165.547 77.597C162.834 79.0401 157.558 79.3183 154.55 78.1768V78.1768ZM121.542 48.8921C121.542 48.5797 120.119 46.103 118.379 43.3883C113.001 34.9982 102.844 25.6364 92.3768 19.4231C91.3419 18.8088 91.6173 18.4871 94.6749 16.7382C103.889 11.468 111.109 9.60259 122.183 9.63061C132.696 9.65718 137.103 10.6839 146.538 15.3047C152.412 18.1812 153.116 18.6972 152.075 19.3607C139.584 27.3234 131.318 34.9328 125.913 43.4461C124.214 46.1216 122.824 48.5692 122.824 48.8853C122.824 49.2014 122.536 49.46 122.183 49.46C121.831 49.46 121.542 49.2045 121.542 48.8921V48.8921Z" fill="white"/>
<path d="M136.655 105.116L121.954 121.814L115.262 118.059L103.095 128.966L140.888 152.941L189.696 108.226C189.696 108.226 175.79 116.366 157.368 114.525C144.883 113.277 136.655 105.116 136.655 105.116V105.116Z" fill="white"/>
<path d="M215.724 182.068L219.026 145.773L127.468 223.348L215.724 182.068Z" fill="white"/>
<path d="M61.9895 133.48L116.614 220.386L60.8322 163.849L61.9895 133.48Z" fill="white"/>
<path d="M331.141 137V34.625H367C379.422 34.625 388.844 37.0156 395.266 41.7969C401.688 46.5312 404.898 53.4922 404.898 62.6797C404.898 67.6953 403.609 72.125 401.031 75.9688C398.453 79.7656 394.867 82.5547 390.273 84.3359C395.523 85.6484 399.648 88.2969 402.648 92.2812C405.695 96.2656 407.219 101.141 407.219 106.906C407.219 116.75 404.078 124.203 397.797 129.266C391.516 134.328 382.562 136.906 370.938 137H331.141ZM352.234 92.4219V120.055H370.305C375.273 120.055 379.141 118.883 381.906 116.539C384.719 114.148 386.125 110.867 386.125 106.695C386.125 97.3203 381.273 92.5625 371.57 92.4219H352.234ZM352.234 77.5156H367.844C378.484 77.3281 383.805 73.0859 383.805 64.7891C383.805 60.1484 382.445 56.8203 379.727 54.8047C377.055 52.7422 372.812 51.7109 367 51.7109H352.234V77.5156ZM443.219 137H422.828V60.9219H443.219V137ZM421.633 41.2344C421.633 38.1875 422.641 35.6797 424.656 33.7109C426.719 31.7422 429.508 30.7578 433.023 30.7578C436.492 30.7578 439.258 31.7422 441.32 33.7109C443.383 35.6797 444.414 38.1875 444.414 41.2344C444.414 44.3281 443.359 46.8594 441.25 48.8281C439.188 50.7969 436.445 51.7812 433.023 51.7812C429.602 51.7812 426.836 50.7969 424.727 48.8281C422.664 46.8594 421.633 44.3281 421.633 41.2344ZM481.469 137H461.078V29H481.469V137ZM495.32 98.3984C495.32 86.7266 498.086 77.3281 503.617 70.2031C509.195 63.0781 516.695 59.5156 526.117 59.5156C534.461 59.5156 540.953 62.375 545.594 68.0938L546.438 60.9219H564.859V134.469C564.859 141.125 563.336 146.914 560.289 151.836C557.289 156.758 553.047 160.508 547.562 163.086C542.078 165.664 535.656 166.953 528.297 166.953C522.719 166.953 517.281 165.828 511.984 163.578C506.688 161.375 502.68 158.516 499.961 155L508.961 142.625C514.023 148.297 520.164 151.133 527.383 151.133C532.773 151.133 536.969 149.68 539.969 146.773C542.969 143.914 544.469 139.836 544.469 134.539V130.461C539.781 135.758 533.617 138.406 525.977 138.406C516.836 138.406 509.43 134.844 503.758 127.719C498.133 120.547 495.32 111.055 495.32 99.2422V98.3984ZM515.641 99.875C515.641 106.766 517.023 112.18 519.789 116.117C522.555 120.008 526.352 121.953 531.18 121.953C537.367 121.953 541.797 119.633 544.469 114.992V83C541.75 78.3594 537.367 76.0391 531.32 76.0391C526.445 76.0391 522.602 78.0312 519.789 82.0156C517.023 86 515.641 91.9531 515.641 99.875ZM601.984 137H581.594V60.9219H601.984V137ZM580.398 41.2344C580.398 38.1875 581.406 35.6797 583.422 33.7109C585.484 31.7422 588.273 30.7578 591.789 30.7578C595.258 30.7578 598.023 31.7422 600.086 33.7109C602.148 35.6797 603.18 38.1875 603.18 41.2344C603.18 44.3281 602.125 46.8594 600.016 48.8281C597.953 50.7969 595.211 51.7812 591.789 51.7812C588.367 51.7812 585.602 50.7969 583.492 48.8281C581.43 46.8594 580.398 44.3281 580.398 41.2344ZM637.492 60.9219L638.125 69.7109C643.562 62.9141 650.852 59.5156 659.992 59.5156C668.055 59.5156 674.055 61.8828 677.992 66.6172C681.93 71.3516 683.945 78.4297 684.039 87.8516V137H663.719V88.3438C663.719 84.0312 662.781 80.9141 660.906 78.9922C659.031 77.0234 655.914 76.0391 651.555 76.0391C645.836 76.0391 641.547 78.4766 638.688 83.3516V137H618.367V60.9219H637.492Z" fill="white"/>
<path d="M326.062 224V178.5H342C347.521 178.5 351.708 179.562 354.562 181.688C357.417 183.792 358.844 186.885 358.844 190.969C358.844 193.198 358.271 195.167 357.125 196.875C355.979 198.562 354.385 199.802 352.344 200.594C354.677 201.177 356.51 202.354 357.844 204.125C359.198 205.896 359.875 208.062 359.875 210.625C359.875 215 358.479 218.312 355.688 220.562C352.896 222.812 348.917 223.958 343.75 224H326.062ZM335.438 204.188V216.469H343.469C345.677 216.469 347.396 215.948 348.625 214.906C349.875 213.844 350.5 212.385 350.5 210.531C350.5 206.365 348.344 204.25 344.031 204.188H335.438ZM335.438 197.562H342.375C347.104 197.479 349.469 195.594 349.469 191.906C349.469 189.844 348.865 188.365 347.656 187.469C346.469 186.552 344.583 186.094 342 186.094H335.438V197.562ZM375.875 224H366.812V190.188H375.875V224ZM366.281 181.438C366.281 180.083 366.729 178.969 367.625 178.094C368.542 177.219 369.781 176.781 371.344 176.781C372.885 176.781 374.115 177.219 375.031 178.094C375.948 178.969 376.406 180.083 376.406 181.438C376.406 182.812 375.938 183.938 375 184.812C374.083 185.688 372.865 186.125 371.344 186.125C369.823 186.125 368.594 185.688 367.656 184.812C366.74 183.938 366.281 182.812 366.281 181.438ZM392.875 224H383.812V176H392.875V224ZM399.031 206.844C399.031 201.656 400.26 197.479 402.719 194.312C405.198 191.146 408.531 189.562 412.719 189.562C416.427 189.562 419.312 190.833 421.375 193.375L421.75 190.188H429.938V222.875C429.938 225.833 429.26 228.406 427.906 230.594C426.573 232.781 424.688 234.448 422.25 235.594C419.812 236.74 416.958 237.312 413.688 237.312C411.208 237.312 408.792 236.812 406.438 235.812C404.083 234.833 402.302 233.562 401.094 232L405.094 226.5C407.344 229.021 410.073 230.281 413.281 230.281C415.677 230.281 417.542 229.635 418.875 228.344C420.208 227.073 420.875 225.26 420.875 222.906V221.094C418.792 223.448 416.052 224.625 412.656 224.625C408.594 224.625 405.302 223.042 402.781 219.875C400.281 216.688 399.031 212.469 399.031 207.219V206.844ZM408.062 207.5C408.062 210.562 408.677 212.969 409.906 214.719C411.135 216.448 412.823 217.312 414.969 217.312C417.719 217.312 419.688 216.281 420.875 214.219V200C419.667 197.938 417.719 196.906 415.031 196.906C412.865 196.906 411.156 197.792 409.906 199.562C408.677 201.333 408.062 203.979 408.062 207.5ZM446.438 224H437.375V190.188H446.438V224ZM436.844 181.438C436.844 180.083 437.292 178.969 438.188 178.094C439.104 177.219 440.344 176.781 441.906 176.781C443.448 176.781 444.677 177.219 445.594 178.094C446.51 178.969 446.969 180.083 446.969 181.438C446.969 182.812 446.5 183.938 445.562 184.812C444.646 185.688 443.427 186.125 441.906 186.125C440.385 186.125 439.156 185.688 438.219 184.812C437.302 183.938 436.844 182.812 436.844 181.438ZM486.125 199L495.594 178.5H505.844L490.906 207.5V224H481.375V207.5L466.438 178.5H476.719L486.125 199ZM527 224C526.583 223.188 526.281 222.177 526.094 220.969C523.906 223.406 521.062 224.625 517.562 224.625C514.25 224.625 511.5 223.667 509.312 221.75C507.146 219.833 506.062 217.417 506.062 214.5C506.062 210.917 507.385 208.167 510.031 206.25C512.698 204.333 516.542 203.365 521.562 203.344H525.719V201.406C525.719 199.844 525.312 198.594 524.5 197.656C523.708 196.719 522.448 196.25 520.719 196.25C519.198 196.25 518 196.615 517.125 197.344C516.271 198.073 515.844 199.073 515.844 200.344H506.812C506.812 198.385 507.417 196.573 508.625 194.906C509.833 193.24 511.542 191.938 513.75 191C515.958 190.042 518.438 189.562 521.188 189.562C525.354 189.562 528.656 190.615 531.094 192.719C533.552 194.802 534.781 197.74 534.781 201.531V216.188C534.802 219.396 535.25 221.823 536.125 223.469V224H527ZM519.531 217.719C520.865 217.719 522.094 217.427 523.219 216.844C524.344 216.24 525.177 215.438 525.719 214.438V208.625H522.344C517.823 208.625 515.417 210.188 515.125 213.312L515.094 213.844C515.094 214.969 515.49 215.896 516.281 216.625C517.073 217.354 518.156 217.719 519.531 217.719ZM560.719 198.656C559.49 198.49 558.406 198.406 557.469 198.406C554.052 198.406 551.812 199.562 550.75 201.875V224H541.719V190.188H550.25L550.5 194.219C552.312 191.115 554.823 189.562 558.031 189.562C559.031 189.562 559.969 189.698 560.844 189.969L560.719 198.656ZM574.844 224H565.812V190.188H574.844V224ZM600.969 214.656C600.969 213.552 600.417 212.688 599.312 212.062C598.229 211.417 596.479 210.844 594.062 210.344C586.021 208.656 582 205.24 582 200.094C582 197.094 583.24 194.594 585.719 192.594C588.219 190.573 591.479 189.562 595.5 189.562C599.792 189.562 603.219 190.573 605.781 192.594C608.365 194.615 609.656 197.24 609.656 200.469H600.625C600.625 199.177 600.208 198.115 599.375 197.281C598.542 196.427 597.24 196 595.469 196C593.948 196 592.771 196.344 591.938 197.031C591.104 197.719 590.688 198.594 590.688 199.656C590.688 200.656 591.156 201.469 592.094 202.094C593.052 202.698 594.656 203.229 596.906 203.688C599.156 204.125 601.052 204.625 602.594 205.188C607.365 206.938 609.75 209.969 609.75 214.281C609.75 217.365 608.427 219.865 605.781 221.781C603.135 223.677 599.719 224.625 595.531 224.625C592.698 224.625 590.177 224.125 587.969 223.125C585.781 222.104 584.062 220.719 582.812 218.969C581.562 217.198 580.938 215.292 580.938 213.25H589.5C589.583 214.854 590.177 216.083 591.281 216.938C592.385 217.792 593.865 218.219 595.719 218.219C597.448 218.219 598.75 217.896 599.625 217.25C600.521 216.583 600.969 215.719 600.969 214.656ZM599.219 224.062L598.875 225.875C602 226.438 603.562 228.24 603.562 231.281C603.562 233.573 602.604 235.385 600.688 236.719C598.792 238.052 596.115 238.719 592.656 238.719L592.438 233.5C594.771 233.5 595.938 232.656 595.938 230.969C595.938 230.094 595.583 229.49 594.875 229.156C594.188 228.844 593.062 228.635 591.5 228.531L592.469 224.062H599.219ZM624.062 190.188L624.344 193.969C626.74 191.031 629.979 189.562 634.062 189.562C638.417 189.562 641.406 191.281 643.031 194.719C645.406 191.281 648.792 189.562 653.188 189.562C656.854 189.562 659.583 190.635 661.375 192.781C663.167 194.906 664.062 198.115 664.062 202.406V224H655V202.438C655 200.521 654.625 199.125 653.875 198.25C653.125 197.354 651.802 196.906 649.906 196.906C647.198 196.906 645.323 198.198 644.281 200.781L644.312 224H635.281V202.469C635.281 200.51 634.896 199.094 634.125 198.219C633.354 197.344 632.042 196.906 630.188 196.906C627.625 196.906 625.771 197.969 624.625 200.094V224H615.594V190.188H624.062ZM690.625 224C690.208 223.188 689.906 222.177 689.719 220.969C687.531 223.406 684.688 224.625 681.188 224.625C677.875 224.625 675.125 223.667 672.938 221.75C670.771 219.833 669.688 217.417 669.688 214.5C669.688 210.917 671.01 208.167 673.656 206.25C676.323 204.333 680.167 203.365 685.188 203.344H689.344V201.406C689.344 199.844 688.938 198.594 688.125 197.656C687.333 196.719 686.073 196.25 684.344 196.25C682.823 196.25 681.625 196.615 680.75 197.344C679.896 198.073 679.469 199.073 679.469 200.344H670.438C670.438 198.385 671.042 196.573 672.25 194.906C673.458 193.24 675.167 191.938 677.375 191C679.583 190.042 682.062 189.562 684.812 189.562C688.979 189.562 692.281 190.615 694.719 192.719C697.177 194.802 698.406 197.74 698.406 201.531V216.188C698.427 219.396 698.875 221.823 699.75 223.469V224H690.625ZM683.156 217.719C684.49 217.719 685.719 217.427 686.844 216.844C687.969 216.24 688.802 215.438 689.344 214.438V208.625H685.969C681.448 208.625 679.042 210.188 678.75 213.312L678.719 213.844C678.719 214.969 679.115 215.896 679.906 216.625C680.698 217.354 681.781 217.719 683.156 217.719ZM723.656 214.656C723.656 213.552 723.104 212.688 722 212.062C720.917 211.417 719.167 210.844 716.75 210.344C708.708 208.656 704.688 205.24 704.688 200.094C704.688 197.094 705.927 194.594 708.406 192.594C710.906 190.573 714.167 189.562 718.188 189.562C722.479 189.562 725.906 190.573 728.469 192.594C731.052 194.615 732.344 197.24 732.344 200.469H723.312C723.312 199.177 722.896 198.115 722.062 197.281C721.229 196.427 719.927 196 718.156 196C716.635 196 715.458 196.344 714.625 197.031C713.792 197.719 713.375 198.594 713.375 199.656C713.375 200.656 713.844 201.469 714.781 202.094C715.74 202.698 717.344 203.229 719.594 203.688C721.844 204.125 723.74 204.625 725.281 205.188C730.052 206.938 732.438 209.969 732.438 214.281C732.438 217.365 731.115 219.865 728.469 221.781C725.823 223.677 722.406 224.625 718.219 224.625C715.385 224.625 712.865 224.125 710.656 223.125C708.469 222.104 706.75 220.719 705.5 218.969C704.25 217.198 703.625 215.292 703.625 213.25H712.188C712.271 214.854 712.865 216.083 713.969 216.938C715.073 217.792 716.552 218.219 718.406 218.219C720.135 218.219 721.438 217.896 722.312 217.25C723.208 216.583 723.656 215.719 723.656 214.656ZM748.031 224H739V190.188H748.031V224Z" fill="white"/>
</svg>