<svg width="245" height="244" viewBox="0 0 245 244" fill="none" xmlns="http://www.w3.org/2000/svg">
<path d="M13.2264 243.656C13.2264 243.252 36.8118 235.348 45.593 232.809C49.4706 231.688 53.5084 230.499 54.5659 230.167C58.0457 229.074 67.8887 226.896 76.0369 225.415C87.5794 223.318 102.13 223.272 108.442 225.312C110.931 226.117 114.156 227.661 115.61 228.744C118.292 230.742 121.542 235.587 121.542 237.584C121.542 238.187 121.831 238.68 122.183 238.68C122.536 238.68 122.824 238.187 122.824 237.584C122.824 235.587 126.075 230.742 128.757 228.744C130.211 227.661 133.436 226.117 135.925 225.312C145.764 222.131 169.625 224.261 189.48 230.092C190.714 230.455 194.896 231.673 198.774 232.799C208.537 235.636 231.317 243.334 230.978 243.682C230.825 243.84 227.987 243.111 224.671 242.063C221.355 241.014 214.46 239.103 209.349 237.815C170.206 227.949 142.05 227.891 124.992 237.641L122.354 239.149L117.287 236.622C97.7906 226.897 64.088 228.654 21.249 241.629C12.8284 244.179 13.2264 244.079 13.2264 243.656V243.656ZM18.453 228.231C16.6742 223.281 11.7401 209.764 7.48839 198.193C3.23657 186.622 -0.131421 177.041 0.00394173 176.902C0.139369 176.762 5.69342 178.917 12.3463 181.69C18.9992 184.464 33.2392 190.385 43.9907 194.848C54.7422 199.312 70.0282 205.68 77.9596 209C85.8911 212.319 95.3367 216.252 98.9501 217.737C102.563 219.223 105.395 220.567 105.243 220.724C105.091 220.88 103.491 220.682 101.686 220.284C96.4033 219.119 83.4959 219.403 75.3187 220.864C66.1016 222.512 57.6561 224.95 39.5042 231.204C31.5728 233.937 24.3193 236.412 23.3853 236.703C21.6993 237.228 21.6638 237.167 18.453 228.231V228.231ZM206.465 231.727C187.045 225.049 178.367 222.533 168.936 220.844C161.036 219.43 148.288 219.128 142.677 220.223C140.809 220.587 139.188 220.79 139.074 220.672C138.96 220.555 143.261 218.635 148.631 216.406C154.001 214.177 164.02 210.005 170.894 207.135C177.767 204.264 190.314 199.036 198.774 195.515C207.234 191.994 220.891 186.302 229.122 182.866C237.353 179.43 244.216 176.75 244.372 176.911C244.528 177.071 243.498 180.332 242.084 184.158C240.67 187.983 235.73 201.445 231.107 214.073C226.484 226.7 222.653 237.078 222.595 237.134C222.536 237.19 215.277 234.757 206.465 231.727ZM110.967 220.219C108.852 219.181 105.68 217.669 103.917 216.86C102.154 216.051 95.8093 213.102 89.8167 210.308C83.8241 207.513 73.0085 202.49 65.7821 199.145C42.9623 188.583 30.2357 182.617 29.4606 182.119C28.9748 181.807 28.2726 175.6 27.4676 164.502C26.784 155.078 26.2739 147.299 26.3341 147.217C26.5402 146.934 30.422 150.006 36.1027 154.949C39.2286 157.668 43.1901 161.08 44.9061 162.531C46.622 163.981 48.3438 165.469 48.7322 165.837C49.1207 166.205 50.7331 167.54 52.3153 168.804C53.8975 170.068 59.7005 174.959 65.2108 179.673C70.7211 184.387 78.0384 190.617 81.4714 193.518C84.9046 196.419 90.4521 201.166 93.7994 204.067C97.1467 206.968 100.504 209.781 101.26 210.32C102.291 211.053 110.194 217.713 115.08 221.965C115.637 222.45 114.694 222.05 110.967 220.219V220.219ZM129.554 221.694C131.62 219.805 141.953 211.126 143.106 210.312C143.863 209.778 147.22 206.968 150.567 204.067C153.915 201.166 159.462 196.419 162.895 193.518C166.328 190.617 173.642 184.385 179.149 179.669C184.655 174.953 190.89 169.716 193.005 168.031C195.12 166.347 197.428 164.419 198.133 163.748C202.3 159.782 209.919 153.777 210.295 154.164C210.538 154.414 210.641 154.292 210.524 153.891C210.32 153.196 217.535 146.647 217.97 147.133C218.205 147.395 215.716 181.537 215.439 181.85C215.21 182.109 197.867 190.28 187.558 194.985C183.151 196.996 176.851 199.936 173.558 201.519C170.265 203.102 167.472 204.397 167.352 204.397C167.168 204.397 156.06 209.56 140.77 216.752C131.366 221.175 128.964 222.234 129.554 221.694V221.694ZM112.309 215.668C110.607 213.889 109.407 212.113 109.643 211.719C109.905 211.284 109.704 211.15 109.129 211.377C108.501 211.625 101.807 205.278 89.0672 192.355C78.5517 181.689 67.897 170.911 65.3901 168.406L60.8321 163.849L61.345 154.949C61.627 150.053 61.9146 143.608 61.984 140.625C62.0534 137.642 62.3275 135.34 62.5932 135.509C63.2258 135.911 71.6553 149.437 71.7052 150.13C71.7264 150.423 72.1108 150.96 72.5596 151.323C73.0084 151.685 73.9023 152.92 74.546 154.067C75.1897 155.214 76.7575 157.736 78.0299 159.671C80.3337 163.175 86.267 172.569 92.121 181.98C93.8127 184.7 95.7262 187.667 96.3734 188.573C97.0205 189.48 99.1082 192.743 101.013 195.826C102.917 198.908 107.001 205.361 110.088 210.165C113.175 214.97 115.634 218.901 115.553 218.901C115.472 218.901 114.012 217.446 112.309 215.668V215.668ZM131.925 213.956C133.507 211.418 135.854 207.71 137.14 205.715C138.427 203.721 141.861 198.321 144.771 193.716C147.682 189.111 152.839 180.952 156.231 175.585C159.623 170.218 163.805 163.65 165.524 160.99C167.244 158.329 168.939 155.678 169.291 155.099C173.009 148.992 181.838 135.17 182.02 135.17C182.15 135.17 182.309 137.617 182.375 140.609C182.44 143.6 182.739 150.053 183.039 154.949L183.584 163.849L178.681 168.739C175.984 171.428 165.99 181.525 156.473 191.177C146.955 200.829 136.891 210.941 134.108 213.649L129.049 218.572L131.925 213.956ZM117.512 174.233C115.347 172.148 113.247 170.146 112.844 169.783C112.441 169.42 107.672 164.824 102.246 159.569C84.2594 142.15 68.5129 124.251 58.331 112.753C57.3222 111.484 56.1345 110.054 55.6916 109.574C54.308 108.077 54.808 107.991 56.7258 109.396C57.7375 110.137 61.2706 111.687 64.5772 112.842C72.8138 115.717 82.287 116.205 89.9932 114.15C95.2754 112.741 102.575 109.445 106.051 106.9L107.934 105.52L114.257 112.534C117.735 116.392 120.942 120.022 121.382 120.601C122.116 121.565 122.251 121.565 122.985 120.601C123.425 120.022 126.623 116.401 130.09 112.556L136.394 105.563L138.518 106.995C140.634 108.422 140.637 108.432 139.332 109.596C138.603 110.247 137.993 111.641 137.955 112.746C137.891 114.58 137.709 114.728 135.508 114.73C131.217 114.732 129.133 118.975 131.611 122.661C132.214 123.558 133.503 125.175 134.476 126.256C135.881 127.819 136.407 128.054 137.037 127.406C137.668 126.757 137.614 126.366 136.775 125.503C135.795 124.494 135.854 124.288 137.604 122.606C138.844 121.414 139.488 120.147 139.488 118.9C139.488 117.096 139.608 117.016 141.974 117.248C144 117.446 144.651 117.209 145.499 115.965C146.071 115.125 146.538 113.91 146.538 113.266C146.538 111.801 146.44 111.795 151.917 113.572C155.764 114.82 157.868 115.044 165.446 115.014C173.961 114.98 174.713 114.867 180.187 112.802C183.36 111.605 186.8 110.007 187.834 109.252C167.321 130.547 127.21 174.592 122.183 178.024C121.778 178.024 119.676 176.318 117.512 174.233V174.233ZM124.266 134.409C124.883 133.659 125.388 132.046 125.388 130.825C125.388 128.731 125.474 128.645 126.901 129.314C128.884 130.243 132.438 128.489 132.438 126.582C132.438 125.866 132.15 125.28 131.797 125.28C131.445 125.28 131.156 125.725 131.156 126.269C131.156 126.813 130.868 127.258 130.515 127.258C130.163 127.258 129.658 127.252 129.394 127.244C129.129 127.237 129.012 125.754 129.132 123.948C129.33 120.984 129.221 120.665 128.011 120.665C127.273 120.665 126.67 120.962 126.67 121.324C126.67 121.687 126.333 121.909 125.921 121.819C124.874 121.588 123.423 124.678 123.831 126.269C124.047 127.109 123.17 126.477 121.414 124.525C118.234 120.99 116.013 120.782 118.592 124.261L120.185 126.408L118.3 127.842C116.887 128.916 116.417 129.807 116.425 131.398C116.436 133.829 116.857 134.643 118.658 135.716C120.33 136.712 122.857 136.123 124.266 134.409ZM118.656 133.189C117.695 132.097 117.62 131.582 118.222 130.222C118.94 128.603 120.409 128.17 122.451 128.977C123.921 129.557 123.762 132.982 122.225 133.828C120.487 134.785 119.98 134.694 118.656 133.189ZM126.035 126.409C125.278 124.819 125.295 124.434 126.16 123.544C127.433 122.234 127.809 123.019 127.306 125.939L126.909 128.247L126.035 126.409ZM133.188 121.407C132.704 121.092 132.427 120.028 132.547 118.945C132.735 117.247 133.004 117.039 135.002 117.039C137 117.039 137.268 117.247 137.457 118.945C137.671 120.877 136.788 121.963 135.002 121.963C134.473 121.963 133.657 121.713 133.188 121.407ZM140.495 115.014C138.408 112.866 140.172 109.653 143.032 110.392C144.241 110.704 144.616 111.234 144.616 112.634C144.616 115.762 142.443 117.017 140.495 115.014V115.014ZM118.592 105.302C113.283 99.3903 113.46 100.123 116.391 96.1631C117.824 94.2278 119.62 91.2352 120.383 89.5128C121.146 87.7903 121.957 86.3811 122.183 86.3811C122.41 86.3811 123.22 87.7903 123.984 89.5128C124.747 91.2352 126.543 94.2278 127.976 96.1631C130.907 100.123 131.083 99.3903 125.774 105.302C124.048 107.225 122.432 108.797 122.183 108.797C121.935 108.797 120.319 107.225 118.592 105.302V105.302ZM74.755 107.486C58.6705 105.243 45.848 93.7176 41.7382 77.8101C40.4622 72.8712 40.5058 61.8783 41.8196 57.3276C44.3416 48.5914 50.8764 39.1255 57.2813 34.9307L59.9966 33.1524L56.5361 30.7888C52.6472 28.1327 50.6488 25.6954 48.1424 20.5517C46.048 16.2536 45.3277 8.56878 46.5343 3.39488L47.326 0L49.0735 2.47851C53.284 8.45068 60.0647 13.0405 72.6953 18.4683C92.7274 27.0767 99.4181 31.1865 106.804 39.4192C119.6 53.6833 121.8 72.9055 112.455 88.7922C104.866 101.694 89.1374 109.493 74.755 107.486V107.486ZM91.4577 96.491C97.0382 93.7882 101.609 89.9194 104.482 85.4656C115.722 68.0467 108.347 45.3297 89.1241 38.1615C83.6965 36.1375 74.5693 36.1495 69.4767 38.1872C57.0739 43.1499 49.9207 53.1162 49.2691 66.3418C48.7986 75.8912 51.1699 82.4444 57.648 89.4979C64.0121 96.4272 70.4737 99.0233 80.562 98.7041C86.517 98.5156 87.8262 98.2497 91.4577 96.4909V96.491ZM80.939 78.4519C76.66 77.1325 72.7975 73.0529 71.5329 68.5172C68.9882 59.39 75.913 50.0836 85.2117 50.1338C87.5221 50.1463 93.3418 52.171 93.3418 52.9624C93.3418 53.111 92.2602 52.9389 90.9383 52.5797C85.8841 51.2065 81.1716 55.3776 81.1666 61.2286C81.1666 63.603 81.5328 64.4757 83.3056 66.2994C87.1396 70.2433 91.8406 70.1831 95.2864 66.146C97.1646 63.9455 97.3056 63.4631 97.0386 60.1514C96.7687 56.8026 96.8093 56.6698 97.6181 58.2576C100.292 63.5075 99.1268 70.0715 94.7163 74.6028C90.7333 78.695 86.0084 80.015 80.939 78.4519ZM159.982 107.502C151.887 106.412 143.225 101.984 137.529 96.0238C122.355 80.1454 122.37 56.3558 137.563 39.4192C144.974 31.1582 152.118 26.8519 173.966 17.4755C184.572 12.9236 190.993 8.30258 195.717 1.82125L197.042 0.00409449L197.833 3.39693C199.039 8.56873 198.318 16.2544 196.224 20.5517C193.748 25.6337 191.977 27.795 187.955 30.6446L184.394 33.1677L187.097 34.9384C190.577 37.2172 196.509 43.8311 198.739 47.9178C202.154 54.1756 203.581 59.9226 203.573 67.3775C203.567 71.229 203.159 75.7582 202.628 77.8101C197.64 97.1195 179.042 110.067 159.982 107.502H159.982ZM173.457 97.8037C183.162 95.0836 191.418 86.528 194.34 76.1619C195.801 70.9797 195.667 64.1291 193.996 58.5915C186.999 35.4049 158.16 28.8993 142.384 46.9487C130.154 60.9419 132.709 83.2641 147.713 93.4986C152.532 96.7858 155.473 98.0363 160.959 99.1301C163.093 99.5555 169.715 98.8527 173.457 97.8037V97.8037ZM154.55 78.1768C151.068 76.8556 146.826 72.1276 145.88 68.5131C145.042 65.3107 145.418 60.8703 146.749 58.2576C147.557 56.6698 147.598 56.8026 147.328 60.1514C147.061 63.4631 147.202 63.9455 149.08 66.146C152.526 70.1831 157.227 70.2433 161.061 66.2994C162.834 64.4757 163.202 63.603 163.2 61.2286C163.194 55.3776 158.483 51.2065 153.428 52.5797C150.26 53.4405 150.384 52.9913 153.749 51.4202C160.938 48.0634 169.638 51.8885 172.529 59.6776C174.983 66.2858 171.89 74.2229 165.547 77.597C162.834 79.0401 157.558 79.3183 154.55 78.1768V78.1768ZM121.542 48.8921C121.542 48.5797 120.119 46.103 118.379 43.3883C113.001 34.9982 102.844 25.6364 92.3768 19.4231C91.3419 18.8088 91.6173 18.4871 94.6749 16.7382C103.889 11.468 111.109 9.60259 122.183 9.63061C132.696 9.65718 137.103 10.6839 146.538 15.3047C152.412 18.1812 153.116 18.6972 152.075 19.3607C139.584 27.3234 131.318 34.9328 125.913 43.4461C124.214 46.1216 122.824 48.5692 122.824 48.8853C122.824 49.2014 122.536 49.46 122.183 49.46C121.831 49.46 121.542 49.2045 121.542 48.8921V48.8921Z" fill="white"/>
<path d="M136.655 105.116L121.954 121.814L115.262 118.059L103.095 128.966L140.888 152.941L189.696 108.226C189.696 108.226 175.79 116.366 157.368 114.525C144.883 113.277 136.655 105.116 136.655 105.116V105.116Z" fill="white"/>
<path d="M215.724 182.068L219.026 145.773L127.468 223.348L215.724 182.068Z" fill="white"/>
<path d="M61.9895 133.48L116.614 220.386L60.8322 163.849L61.9895 133.48Z" fill="white"/>
</svg>